<?xml version="1.0" ?><svg enable-background="new 0 0 24 24" id="Layer_1" version="1.1" viewBox="0 0 24 24" xml:space="preserve" xmlns="http://www.w3.org/2000/svg" xmlns:xlink="http://www.w3.org/1999/xlink"><path d="M19.1953125,2.7705078c-0.3779297-1.0649414-1.2636719-1.8735352-2.3671875-2.1625977  C15.7666016,0.3291016,14.0888672,0,12.0927734,0c-0.0302849,0-0.0605469,0-0.0898438,0  C9.9638672,0.0175781,8.25,0.3251953,7.171875,0.6079102C6.0683594,0.8969727,5.1826172,1.7055664,4.8046875,2.7705078  C3.3945313,6.7294922,3.015625,15.1230469,3,15.5c0,4.8457031,3.8691406,8.5,9,8.5s9-3.6542969,9-8.5214844  C20.984375,15.1230469,20.6054688,6.7294922,19.1953125,2.7705078z M8,19H7c-0.2763672,0-0.5-0.2236328-0.5-0.5v-1h-1  C5.2236328,17.5,5,17.2763672,5,17v-1c0-0.2763672,0.2236328-0.5,0.5-0.5h1v-1C6.5,14.2236328,6.7236328,14,7,14h1  c0.2763672,0,0.5,0.2236328,0.5,0.5v1h1c0.2763672,0,0.5,0.2236328,0.5,0.5v1c0,0.2763672-0.2236328,0.5-0.5,0.5h-1v1  C8.5,18.7763672,8.2763672,19,8,19z M10.5,21h-1C9.2236328,21,9,20.7763672,9,20.5S9.2236328,20,9.5,20h1  c0.2763672,0,0.5,0.2236328,0.5,0.5S10.7763672,21,10.5,21z M7.4345703,12.5463867  c-1.1835938-0.2851563-1.9970813-1.3647461-1.9335938-2.5668945c0.1328125-2.206543,0.984375-5.0078125,1.0205078-5.1259766  c0.2763672-1.0708008,0.9560547-1.9077148,1.8125-2.2172852C9.1503906,2.340332,10.4667969,2.003418,12.0029297,2  c1.5341797,0.0180664,2.8466797,0.3408203,3.6630859,0.6362305C16.5224609,2.9458008,17.2021484,3.7827148,17.484375,4.875  c0.0302734,0.0966797,0.8818359,2.8979492,1.0146484,5.0947266c0.0634651,1.2119141-0.75,2.2915039-1.9335938,2.5766602  C15.3193359,12.8476563,13.7832031,13,12,13S8.6806641,12.8476563,7.4345703,12.5463867z M14.5,21h-1  c-0.2763672,0-0.5-0.2236328-0.5-0.5s0.2236328-0.5,0.5-0.5h1c0.2763672,0,0.5,0.2236328,0.5,0.5S14.7763672,21,14.5,21z M15.5,19  c-0.5517578,0-1-0.4487305-1-1s0.4482422-1,1-1s1,0.4487305,1,1S16.0517578,19,15.5,19z M17.5,17  c-0.8271484,0-1.5-0.6728516-1.5-1.5s0.6728516-1.5,1.5-1.5s1.5,0.6728516,1.5,1.5S18.3271484,17,17.5,17z" fill="#303C42"/><g/><g/><g/><g/><g/><g/><g/><g/><g/><g/><g/><g/><g/><g/><g/></svg>