<svg id="Camada_2" data-name="Camada 2" xmlns="http://www.w3.org/2000/svg" viewBox="0 0 1089 556"><defs><style>.cls-1,.cls-12{fill:#07703d;}.cls-2{fill:#ffd601;}.cls-3{fill:#009a3a;}.cls-4{fill:none;}.cls-5{fill:#002776;}.cls-6{fill:#dceffd;}.cls-7{fill:#f7f7f7;}.cls-8{fill:#009245;}.cls-9{font-size:124px;letter-spacing:0.66em;}.cls-12,.cls-9{font-family:ArchivoBlack-Regular, Archivo Black;}.cls-10{letter-spacing:0.67em;}.cls-11{letter-spacing:0.66em;}.cls-12{font-size:359.06px;letter-spacing:-0.02em;}.cls-13{letter-spacing:-0.06em;}.cls-14{letter-spacing:-0.02em;}</style></defs><rect class="cls-1" x="33" y="71" width="30" height="417"/><rect class="cls-2" x="65" y="71" width="30" height="417"/><rect class="cls-1" x="979" y="70" width="30" height="417"/><rect class="cls-2" x="948" y="69" width="30" height="417"/><rect class="cls-3" x="608" y="72" width="332" height="238" rx="32.04"/><path class="cls-4" d="M1146,377" transform="translate(-443 -199)"/><path class="cls-4" d="M1260,420" transform="translate(-443 -199)"/><path class="cls-4" d="M1381,427" transform="translate(-443 -199)"/><path class="cls-4" d="M1268,384" transform="translate(-443 -199)"/><polygon class="cls-2" points="774.96 296.14 636 191 772.04 84.86 907 190 774.96 296.14"/><circle class="cls-5" cx="773" cy="189" r="61"/><polygon class="cls-6" points="726.08 195 724.02 197.69 725.06 200.92 721.86 199.79 719.12 201.78 719.21 198.39 716.47 196.39 719.72 195.43 720.77 192.2 722.69 195 726.08 195"/><polygon class="cls-6" points="735.08 213 733.02 215.69 734.06 218.92 730.86 217.79 728.12 219.78 728.21 216.39 725.47 214.39 728.72 213.43 729.77 210.2 731.69 213 735.08 213"/><polygon class="cls-6" points="754.08 194 752.02 196.69 753.06 199.92 749.86 198.79 747.12 200.78 747.21 197.39 744.47 195.39 747.72 194.43 748.77 191.2 750.69 194 754.08 194"/><polygon class="cls-6" points="792.08 213 790.02 215.69 791.06 218.92 787.86 217.79 785.12 219.78 785.21 216.39 782.47 214.39 785.72 213.43 786.77 210.2 788.69 213 792.08 213"/><polygon class="cls-6" points="809.08 223 807.02 225.69 808.06 228.92 804.86 227.79 802.12 229.78 802.21 226.39 799.47 224.39 802.72 223.43 803.77 220.2 805.69 223 809.08 223"/><polygon class="cls-6" points="780.08 231 778.02 233.69 779.06 236.92 775.86 235.79 773.12 237.78 773.21 234.39 770.47 232.39 773.72 231.43 774.77 228.2 776.69 231 780.08 231"/><polygon class="cls-6" points="772.08 205 770.02 207.69 771.06 210.92 767.86 209.79 765.12 211.78 765.21 208.39 762.47 206.39 765.72 205.43 766.77 202.2 768.69 205 772.08 205"/><polygon class="cls-6" points="812.08 174 810.02 176.69 811.06 179.92 807.87 178.79 805.12 180.78 805.21 177.39 802.47 175.39 805.72 174.43 806.77 171.2 808.69 174 812.08 174"/><path class="cls-7" d="M1266,423c-20.52-24.71-80.44-47.3-110.7-43,.45-5.24,3.85-15.51,6.72-20.21,33.23.3,81.45,8.32,112.68,45.21A67.72,67.72,0,0,1,1266,423Z" transform="translate(-443 -199)"/><path class="cls-8" d="M584.75,670.17a8.59,8.59,0,0,1-1.39,4.92,8.74,8.74,0,0,1-4,3.16,15.81,15.81,0,0,1-6.21,1.1,27.89,27.89,0,0,1-3.36-.19,22.13,22.13,0,0,1-3-.59,15.25,15.25,0,0,1-2.6-.93v-5a33.9,33.9,0,0,0,4.39,1.55,17.83,17.83,0,0,0,4.92.7,9.19,9.19,0,0,0,3.39-.54,4.31,4.31,0,0,0,2-1.54,4.17,4.17,0,0,0,.67-2.34,3.8,3.8,0,0,0-.77-2.41,7.52,7.52,0,0,0-2.32-1.81,37.88,37.88,0,0,0-3.9-1.78,22.51,22.51,0,0,1-3-1.43,12.49,12.49,0,0,1-2.55-1.91,8.05,8.05,0,0,1-1.78-2.62,8.72,8.72,0,0,1-.66-3.53,8.09,8.09,0,0,1,1.32-4.67,8.34,8.34,0,0,1,3.7-3,13.91,13.91,0,0,1,5.57-1,20.18,20.18,0,0,1,4.76.54,26,26,0,0,1,4.38,1.48l-1.67,4.26a31.08,31.08,0,0,0-3.84-1.3,14.53,14.53,0,0,0-3.78-.5,7.07,7.07,0,0,0-2.84.51,4,4,0,0,0-1.77,1.42,4.3,4.3,0,0,0,.09,4.53,6.37,6.37,0,0,0,2.16,1.74c1,.52,2.23,1.11,3.76,1.75a28.64,28.64,0,0,1,4.52,2.31,8.69,8.69,0,0,1,2.84,2.89A8.17,8.17,0,0,1,584.75,670.17Z" transform="translate(-443 -199)"/><path class="cls-8" d="M593.4,645.27a3.4,3.4,0,0,1,2.05.64,2.56,2.56,0,0,1,.87,2.2,2.6,2.6,0,0,1-.87,2.2,3.28,3.28,0,0,1-2.05.65,3.32,3.32,0,0,1-2.09-.65,2.62,2.62,0,0,1-.86-2.2,2.58,2.58,0,0,1,.86-2.2A3.44,3.44,0,0,1,593.4,645.27Zm2.55,9.32v24.32h-5.19V654.59Z" transform="translate(-443 -199)"/><path class="cls-8" d="M620,672a6.77,6.77,0,0,1-1.17,4,7.12,7.12,0,0,1-3.39,2.5,15.59,15.59,0,0,1-5.46.84,23.21,23.21,0,0,1-4.39-.36,15.7,15.7,0,0,1-3.48-1.11v-4.46a25.93,25.93,0,0,0,3.92,1.41,15.79,15.79,0,0,0,4.1.59,6.51,6.51,0,0,0,3.66-.8,2.52,2.52,0,0,0,1.13-2.14,2.38,2.38,0,0,0-.45-1.42,5.1,5.1,0,0,0-1.67-1.3,34.16,34.16,0,0,0-3.59-1.59,28,28,0,0,1-3.89-1.86,6.83,6.83,0,0,1-2.4-2.23,6.19,6.19,0,0,1-.81-3.34,5.53,5.53,0,0,1,2.57-4.93,12.26,12.26,0,0,1,6.79-1.68,19.05,19.05,0,0,1,4.23.45,20.56,20.56,0,0,1,3.9,1.31L618,659.78a29.16,29.16,0,0,0-3.31-1.18,12.46,12.46,0,0,0-3.37-.47,6.11,6.11,0,0,0-3.05.61,1.93,1.93,0,0,0-1,1.74,2.2,2.2,0,0,0,.5,1.45,5.52,5.52,0,0,0,1.75,1.19c.83.39,2,.88,3.46,1.47a27.46,27.46,0,0,1,3.77,1.74,7.09,7.09,0,0,1,2.45,2.23A6.18,6.18,0,0,1,620,672Z" transform="translate(-443 -199)"/><path class="cls-8" d="M635,675.18a10.34,10.34,0,0,0,2-.19,13.14,13.14,0,0,0,1.8-.45v3.91a10.94,10.94,0,0,1-2.22.64,14.53,14.53,0,0,1-2.83.26,9.56,9.56,0,0,1-3.72-.69,5.31,5.31,0,0,1-2.61-2.38,9.43,9.43,0,0,1-1-4.68V658.54h-3.32v-2.3l3.56-1.85,1.69-5.2h3.26v5.4h7v3.95h-7v13a3.67,3.67,0,0,0,.92,2.75A3.34,3.34,0,0,0,635,675.18Z" transform="translate(-443 -199)"/><path class="cls-8" d="M653.8,654.13a11,11,0,0,1,5.58,1.34,9,9,0,0,1,3.59,3.8,12.9,12.9,0,0,1,1.25,5.89v2.77H648a7.92,7.92,0,0,0,1.9,5.45,6.7,6.7,0,0,0,5.09,1.91,17.73,17.73,0,0,0,4.18-.45,23.11,23.11,0,0,0,3.84-1.33v4.2a17.33,17.33,0,0,1-3.72,1.25,22.63,22.63,0,0,1-4.52.39,13.8,13.8,0,0,1-6.31-1.38,9.87,9.87,0,0,1-4.24-4.15,14.26,14.26,0,0,1-1.51-6.9,15.89,15.89,0,0,1,1.38-6.95,10,10,0,0,1,3.89-4.35A11.25,11.25,0,0,1,653.8,654.13Zm0,3.89a5.17,5.17,0,0,0-3.94,1.58,7.49,7.49,0,0,0-1.77,4.64h11a8.44,8.44,0,0,0-.6-3.22,4.86,4.86,0,0,0-1.75-2.2A5.18,5.18,0,0,0,653.8,658Z" transform="translate(-443 -199)"/><path class="cls-8" d="M697.89,654.13c2.72,0,4.78.7,6.16,2.11s2.08,3.66,2.08,6.77v15.9H701V664a6.81,6.81,0,0,0-1.07-4.19,3.88,3.88,0,0,0-3.28-1.39,5,5,0,0,0-4.42,2,10,10,0,0,0-1.35,5.69v12.89h-5.17V664a9,9,0,0,0-.47-3.11,3.75,3.75,0,0,0-1.44-1.86,4.55,4.55,0,0,0-2.44-.61,5.46,5.46,0,0,0-3.39,1,5.23,5.23,0,0,0-1.82,2.83,16.84,16.84,0,0,0-.55,4.6v12.15h-5.18V654.59h4l.73,3.27h.28a7,7,0,0,1,1.86-2.09,7.84,7.84,0,0,1,2.47-1.23,9.56,9.56,0,0,1,2.84-.41,10.12,10.12,0,0,1,4.59,1A6.14,6.14,0,0,1,690,658h.39a7.06,7.06,0,0,1,3.19-2.93A10.2,10.2,0,0,1,697.89,654.13Z" transform="translate(-443 -199)"/><path class="cls-8" d="M723.23,654.13c3.08,0,5.4.68,7,2s2.36,3.49,2.36,6.37v16.37H728.9l-1-3.45h-.18a12.36,12.36,0,0,1-2.13,2.19,7.34,7.34,0,0,1-2.52,1.29,13,13,0,0,1-3.5.41,9,9,0,0,1-3.91-.8A6,6,0,0,1,713,676.1a8.09,8.09,0,0,1-1-4.17,6.38,6.38,0,0,1,2.8-5.65q2.81-1.89,8.47-2.09l4.2-.15v-1.28a4,4,0,0,0-4.46-4.65,12,12,0,0,0-3.54.52,27,27,0,0,0-3.34,1.28l-1.69-3.65a19.35,19.35,0,0,1,4.08-1.54A18.86,18.86,0,0,1,723.23,654.13Zm4.2,13.16-3.12.13q-3.87.14-5.43,1.31a3.82,3.82,0,0,0-1.56,3.24,3.1,3.1,0,0,0,1.08,2.63,4.53,4.53,0,0,0,2.83.82,6.51,6.51,0,0,0,4.44-1.53,5.6,5.6,0,0,0,1.76-4.47Z" transform="translate(-443 -199)"/><path class="cls-8" d="M773.41,654.59v24.32h-4.06l-.73-3.25h-.26a6.84,6.84,0,0,1-2,2.08,8.61,8.61,0,0,1-2.64,1.22,11.9,11.9,0,0,1-3.07.39,10.74,10.74,0,0,1-4.67-.93,6.53,6.53,0,0,1-3-2.89,10.76,10.76,0,0,1-1-5V654.59h5.21v14.92a6.58,6.58,0,0,0,1.15,4.24,4.38,4.38,0,0,0,3.59,1.41,6.42,6.42,0,0,0,3.73-1,5.28,5.28,0,0,0,2-2.86,15.44,15.44,0,0,0,.6-4.63V654.59Z" transform="translate(-443 -199)"/><path class="cls-8" d="M793.83,654.13a9.11,9.11,0,0,1,6.41,2.12q2.29,2.12,2.29,6.8v15.86h-5.16V664a6.57,6.57,0,0,0-1.16-4.23,4.39,4.39,0,0,0-3.61-1.42c-2.36,0-4,.72-4.91,2.17a11.94,11.94,0,0,0-1.37,6.29v12.08h-5.19V654.59h4l.72,3.3h.29a7,7,0,0,1,2-2.1,8.9,8.9,0,0,1,2.64-1.24A10.94,10.94,0,0,1,793.83,654.13Z" transform="translate(-443 -199)"/><path class="cls-8" d="M812.72,645.27a3.4,3.4,0,0,1,2,.64,2.56,2.56,0,0,1,.87,2.2,2.6,2.6,0,0,1-.87,2.2,3.28,3.28,0,0,1-2,.65,3.32,3.32,0,0,1-2.09-.65,2.62,2.62,0,0,1-.86-2.2,2.58,2.58,0,0,1,.86-2.2A3.44,3.44,0,0,1,812.72,645.27Zm2.55,9.32v24.32h-5.19V654.59Z" transform="translate(-443 -199)"/><path class="cls-8" d="M835.16,658.54h-5.91v20.37h-5.19V658.54h-3.95V656l3.95-1.52v-1.69a10.37,10.37,0,0,1,1-4.92,5.76,5.76,0,0,1,2.83-2.62,10.77,10.77,0,0,1,4.38-.81,15.83,15.83,0,0,1,5.38.93l-1.34,3.88a16.78,16.78,0,0,0-1.67-.43,8.86,8.86,0,0,0-2-.2,3,3,0,0,0-2.58,1.1,5.22,5.22,0,0,0-.82,3.18v1.65h5.91Zm6.74-13.27a3.41,3.41,0,0,1,2.06.64,2.56,2.56,0,0,1,.87,2.2,2.6,2.6,0,0,1-.87,2.2,3.62,3.62,0,0,1-4.14,0,2.62,2.62,0,0,1-.86-2.2,2.58,2.58,0,0,1,.86-2.2A3.41,3.41,0,0,1,841.9,645.27Zm2.55,9.32v24.32h-5.18V654.59Z" transform="translate(-443 -199)"/><path class="cls-8" d="M862,679.35a12.63,12.63,0,0,1-6-1.33,8.86,8.86,0,0,1-3.89-4.1,16,16,0,0,1-1.36-7,15.49,15.49,0,0,1,1.49-7.25,9.52,9.52,0,0,1,4.13-4.15,13.32,13.32,0,0,1,6.09-1.34,16.51,16.51,0,0,1,3.94.43,13.94,13.94,0,0,1,3,1l-1.54,4.13a27.48,27.48,0,0,0-2.74-.91,10.1,10.1,0,0,0-2.7-.38,6.16,6.16,0,0,0-3.55.95,5.63,5.63,0,0,0-2.11,2.82,13.45,13.45,0,0,0-.7,4.62,12.59,12.59,0,0,0,.71,4.51,5.59,5.59,0,0,0,2.09,2.77,5.87,5.87,0,0,0,3.4.94,12,12,0,0,0,3.58-.49,15.84,15.84,0,0,0,3-1.25v4.48a11.31,11.31,0,0,1-3,1.18A16.51,16.51,0,0,1,862,679.35Z" transform="translate(-443 -199)"/><path class="cls-8" d="M884.44,654.13q4.6,0,7,2t2.36,6.37v16.37h-3.67l-1-3.45h-.18a13.1,13.1,0,0,1-2.13,2.19,7.39,7.39,0,0,1-2.53,1.29,12.9,12.9,0,0,1-3.49.41,9,9,0,0,1-3.91-.8,6,6,0,0,1-2.69-2.45,8,8,0,0,1-1-4.17,6.35,6.35,0,0,1,2.8-5.65q2.81-1.89,8.47-2.09l4.2-.15v-1.28a4,4,0,0,0-4.46-4.65,12,12,0,0,0-3.54.52,26.43,26.43,0,0,0-3.34,1.28l-1.69-3.65a19.47,19.47,0,0,1,4.07-1.54A19,19,0,0,1,884.44,654.13Zm4.2,13.16-3.12.13q-3.87.14-5.43,1.31a3.82,3.82,0,0,0-1.56,3.24,3.13,3.13,0,0,0,1.07,2.63,4.56,4.56,0,0,0,2.84.82,6.51,6.51,0,0,0,4.44-1.53,5.6,5.6,0,0,0,1.76-4.47Z" transform="translate(-443 -199)"/><path class="cls-8" d="M909.52,679.35a8.6,8.6,0,0,1-7-3.17q-2.62-3.18-2.62-9.37t2.67-9.47a8.7,8.7,0,0,1,7-3.21,9.54,9.54,0,0,1,3.21.49,8,8,0,0,1,2.39,1.33,8.26,8.26,0,0,1,1.69,1.87h.25c-.08-.45-.16-1.11-.25-2s-.13-1.65-.13-2.38v-8.75H922v34.19h-4l-.93-3.29h-.22a8.41,8.41,0,0,1-1.66,1.89,7.46,7.46,0,0,1-2.38,1.35A9.66,9.66,0,0,1,909.52,679.35Zm1.47-4.19c2.2,0,3.75-.64,4.67-1.91a10,10,0,0,0,1.39-5.74v-.68a12.27,12.27,0,0,0-1.3-6.26c-.87-1.45-2.48-2.18-4.8-2.18a4.79,4.79,0,0,0-4.26,2.24,11.46,11.46,0,0,0-1.46,6.26,10.85,10.85,0,0,0,1.46,6.15A4.9,4.9,0,0,0,911,675.16Z" transform="translate(-443 -199)"/><path class="cls-8" d="M951.27,666.7a16.78,16.78,0,0,1-.79,5.38,10.72,10.72,0,0,1-2.3,4,10,10,0,0,1-3.65,2.46,13,13,0,0,1-4.81.83,12.26,12.26,0,0,1-4.6-.83,10.09,10.09,0,0,1-3.61-2.46,11.11,11.11,0,0,1-2.36-4,16,16,0,0,1-.84-5.38,15.16,15.16,0,0,1,1.4-6.82,9.8,9.8,0,0,1,4-4.28,12.27,12.27,0,0,1,6.17-1.47,11.72,11.72,0,0,1,5.93,1.47,10.06,10.06,0,0,1,4,4.29A14.64,14.64,0,0,1,951.27,666.7Zm-17.64,0a14.17,14.17,0,0,0,.65,4.55,5.71,5.71,0,0,0,2,2.88,6.64,6.64,0,0,0,7,0,5.71,5.71,0,0,0,2-2.88,14.17,14.17,0,0,0,.65-4.55,13.8,13.8,0,0,0-.65-4.5,5.65,5.65,0,0,0-2-2.83,5.91,5.91,0,0,0-3.52-1,5.27,5.27,0,0,0-4.68,2.15A10.89,10.89,0,0,0,933.63,666.7Z" transform="translate(-443 -199)"/><path class="cls-8" d="M977.77,679.35a8.6,8.6,0,0,1-7-3.17q-2.62-3.18-2.62-9.37t2.67-9.47a8.7,8.7,0,0,1,7-3.21,9.54,9.54,0,0,1,3.21.49A8,8,0,0,1,983.5,656a8.26,8.26,0,0,1,1.69,1.87h.25c-.08-.45-.16-1.11-.25-2s-.13-1.65-.13-2.38v-8.75h5.19v34.19h-4l-.93-3.29h-.22a8.41,8.41,0,0,1-1.66,1.89,7.46,7.46,0,0,1-2.38,1.35A9.66,9.66,0,0,1,977.77,679.35Zm1.47-4.19c2.2,0,3.75-.64,4.67-1.91a9.89,9.89,0,0,0,1.39-5.74v-.68a12.27,12.27,0,0,0-1.3-6.26q-1.31-2.18-4.8-2.18a4.79,4.79,0,0,0-4.26,2.24,11.46,11.46,0,0,0-1.46,6.26,10.85,10.85,0,0,0,1.46,6.15A4.9,4.9,0,0,0,979.24,675.16Z" transform="translate(-443 -199)"/><path class="cls-8" d="M1007.68,654.13a11,11,0,0,1,5.58,1.34,8.88,8.88,0,0,1,3.58,3.8,12.77,12.77,0,0,1,1.26,5.89v2.77h-16.24a7.92,7.92,0,0,0,1.9,5.45,6.69,6.69,0,0,0,5.09,1.91,17.79,17.79,0,0,0,4.18-.45,23.11,23.11,0,0,0,3.84-1.33v4.2a17.33,17.33,0,0,1-3.72,1.25,22.7,22.7,0,0,1-4.52.39,13.8,13.8,0,0,1-6.31-1.38,9.81,9.81,0,0,1-4.24-4.15,14.26,14.26,0,0,1-1.52-6.9A15.89,15.89,0,0,1,998,660a10,10,0,0,1,3.89-4.35A11.25,11.25,0,0,1,1007.68,654.13Zm0,3.89a5.17,5.17,0,0,0-3.94,1.58,7.38,7.38,0,0,0-1.77,4.64h11a8.44,8.44,0,0,0-.6-3.22,4.86,4.86,0,0,0-1.75-2.2A5.2,5.2,0,0,0,1007.68,658Z" transform="translate(-443 -199)"/><path class="cls-8" d="M1062.94,662.54a18.58,18.58,0,0,1-2,9.07,12.92,12.92,0,0,1-5.87,5.47,21.4,21.4,0,0,1-9.27,1.83h-8.92V646.79h9.88a19.33,19.33,0,0,1,8.62,1.79,12.8,12.8,0,0,1,5.6,5.3A17.36,17.36,0,0,1,1062.94,662.54Zm-5.52.16a14.81,14.81,0,0,0-1.24-6.49,8,8,0,0,0-3.65-3.79,12.71,12.71,0,0,0-5.9-1.24h-4.5V674.5h3.74c3.86,0,6.76-1,8.67-3S1057.42,666.61,1057.42,662.7Z" transform="translate(-443 -199)"/><path class="cls-8" d="M1091.2,666.7a16.78,16.78,0,0,1-.79,5.38,10.87,10.87,0,0,1-2.31,4,9.87,9.87,0,0,1-3.64,2.46,13.07,13.07,0,0,1-4.82.83,12.17,12.17,0,0,1-4.59-.83,10.09,10.09,0,0,1-3.61-2.46,11.11,11.11,0,0,1-2.36-4,16,16,0,0,1-.84-5.38,15.16,15.16,0,0,1,1.4-6.82,9.83,9.83,0,0,1,4-4.28,12.34,12.34,0,0,1,6.18-1.47,11.72,11.72,0,0,1,5.93,1.47,10.12,10.12,0,0,1,4,4.29A14.64,14.64,0,0,1,1091.2,666.7Zm-17.64,0a13.89,13.89,0,0,0,.65,4.55,5.71,5.71,0,0,0,2,2.88,6.64,6.64,0,0,0,7,0,5.83,5.83,0,0,0,2-2.88,14.18,14.18,0,0,0,.64-4.55,13.82,13.82,0,0,0-.64-4.5,5.77,5.77,0,0,0-2-2.83,5.91,5.91,0,0,0-3.52-1,5.27,5.27,0,0,0-4.68,2.15A10.89,10.89,0,0,0,1073.56,666.7Z" transform="translate(-443 -199)"/><path class="cls-8" d="M1107,654.13c3.08,0,5.4.68,7,2s2.36,3.49,2.36,6.37v16.37h-3.67l-1-3.45h-.18a12.72,12.72,0,0,1-2.13,2.19,7.34,7.34,0,0,1-2.52,1.29,13,13,0,0,1-3.5.41,9,9,0,0,1-3.91-.8,6,6,0,0,1-2.69-2.45,8.09,8.09,0,0,1-1-4.17,6.35,6.35,0,0,1,2.8-5.65q2.81-1.89,8.47-2.09l4.2-.15v-1.28a4,4,0,0,0-4.46-4.65,12,12,0,0,0-3.54.52,27,27,0,0,0-3.34,1.28l-1.69-3.65a19.35,19.35,0,0,1,4.08-1.54A18.86,18.86,0,0,1,1107,654.13Zm4.2,13.16-3.12.13q-3.87.14-5.43,1.31a3.82,3.82,0,0,0-1.56,3.24,3.1,3.1,0,0,0,1.08,2.63,4.53,4.53,0,0,0,2.83.82,6.51,6.51,0,0,0,4.44-1.53,5.6,5.6,0,0,0,1.76-4.47Z" transform="translate(-443 -199)"/><path class="cls-8" d="M1133.76,679.35a12.65,12.65,0,0,1-6-1.33,8.91,8.91,0,0,1-3.89-4.1,16,16,0,0,1-1.36-7,15.36,15.36,0,0,1,1.5-7.25,9.47,9.47,0,0,1,4.13-4.15,13.25,13.25,0,0,1,6.08-1.34,16.6,16.6,0,0,1,4,.43,13.94,13.94,0,0,1,3,1l-1.54,4.13a28.55,28.55,0,0,0-2.75-.91,10.1,10.1,0,0,0-2.7-.38,6.18,6.18,0,0,0-3.55.95,5.69,5.69,0,0,0-2.11,2.82,13.47,13.47,0,0,0-.69,4.62,12.6,12.6,0,0,0,.7,4.51,5.65,5.65,0,0,0,2.09,2.77,5.89,5.89,0,0,0,3.4.94,12,12,0,0,0,3.59-.49,15.75,15.75,0,0,0,3-1.25v4.48a11.38,11.38,0,0,1-3,1.18A16.6,16.6,0,0,1,1133.76,679.35Zm4.2,5.45a4.48,4.48,0,0,1-1.55,3.63c-1,.86-2.73,1.29-5.09,1.29a10.49,10.49,0,0,1-1.54-.1c-.47-.08-.87-.16-1.21-.25v-3a11.47,11.47,0,0,0,1.32.24,9.65,9.65,0,0,0,1.45.11,3.71,3.71,0,0,0,1.83-.39,1.44,1.44,0,0,0,.68-1.34,1.79,1.79,0,0,0-1-1.6,7.66,7.66,0,0,0-2.91-.84l1.82-3.63h3.34l-.88,1.89a7.94,7.94,0,0,1,1.85.77,4.19,4.19,0,0,1,1.37,1.31A3.53,3.53,0,0,1,1138,684.8Z" transform="translate(-443 -199)"/><path class="cls-8" d="M1156.2,654.13c3.08,0,5.4.68,7,2s2.36,3.49,2.36,6.37v16.37h-3.67l-1-3.45h-.18a12.72,12.72,0,0,1-2.13,2.19,7.34,7.34,0,0,1-2.52,1.29,13,13,0,0,1-3.5.41,9,9,0,0,1-3.91-.8,6,6,0,0,1-2.69-2.45,8.09,8.09,0,0,1-1-4.17,6.35,6.35,0,0,1,2.8-5.65q2.8-1.89,8.47-2.09l4.2-.15v-1.28a4,4,0,0,0-4.46-4.65,12,12,0,0,0-3.54.52,27,27,0,0,0-3.34,1.28l-1.69-3.65a19.35,19.35,0,0,1,4.08-1.54A18.86,18.86,0,0,1,1156.2,654.13Zm-8.9-2.48a10.26,10.26,0,0,1,.57-2.72A6,6,0,0,1,1149,647a4.74,4.74,0,0,1,1.64-1.18,5.26,5.26,0,0,1,2-.39,4.7,4.7,0,0,1,1.85.37,14.12,14.12,0,0,1,1.74.87q.84.5,1.65.87a3.62,3.62,0,0,0,1.55.37,1.94,1.94,0,0,0,1.46-.62,3.92,3.92,0,0,0,.91-1.91h2.7a7.56,7.56,0,0,1-1.73,4.63,4.8,4.8,0,0,1-3.67,1.59,4.66,4.66,0,0,1-1.82-.37,16.23,16.23,0,0,1-1.72-.86q-.84-.48-1.65-.87a3.77,3.77,0,0,0-1.58-.38,2,2,0,0,0-1.48.61,3.82,3.82,0,0,0-.89,1.92Zm13.1,15.64-3.12.13q-3.87.14-5.43,1.31a3.82,3.82,0,0,0-1.56,3.24,3.1,3.1,0,0,0,1.08,2.63,4.51,4.51,0,0,0,2.83.82,6.51,6.51,0,0,0,4.44-1.53,5.6,5.6,0,0,0,1.76-4.47Z" transform="translate(-443 -199)"/><path class="cls-8" d="M1194.66,666.7a16.78,16.78,0,0,1-.79,5.38,10.87,10.87,0,0,1-2.31,4,9.87,9.87,0,0,1-3.64,2.46,13.07,13.07,0,0,1-4.82.83,12.17,12.17,0,0,1-4.59-.83,10.09,10.09,0,0,1-3.61-2.46,11.11,11.11,0,0,1-2.36-4,16,16,0,0,1-.84-5.38,15.16,15.16,0,0,1,1.4-6.82,9.83,9.83,0,0,1,4-4.28,12.34,12.34,0,0,1,6.18-1.47,11.72,11.72,0,0,1,5.93,1.47,10.12,10.12,0,0,1,4,4.29A14.64,14.64,0,0,1,1194.66,666.7Zm-17.64,0a13.89,13.89,0,0,0,.65,4.55,6.09,6.09,0,0,0,9,2.88,5.83,5.83,0,0,0,2-2.88,14.18,14.18,0,0,0,.64-4.55,13.82,13.82,0,0,0-.64-4.5,5.77,5.77,0,0,0-2-2.83,5.91,5.91,0,0,0-3.52-1,5.27,5.27,0,0,0-4.68,2.15A10.89,10.89,0,0,0,1177,666.7Z" transform="translate(-443 -199)"/><path class="cls-8" d="M1222.69,654.13a11.09,11.09,0,0,1,5.59,1.34,9,9,0,0,1,3.58,3.8,12.9,12.9,0,0,1,1.25,5.89v2.77h-16.24a7.92,7.92,0,0,0,1.9,5.45,6.7,6.7,0,0,0,5.09,1.91,17.73,17.73,0,0,0,4.18-.45,23.11,23.11,0,0,0,3.84-1.33v4.2a17.44,17.44,0,0,1-3.71,1.25,22.74,22.74,0,0,1-4.53.39,13.8,13.8,0,0,1-6.31-1.38,9.87,9.87,0,0,1-4.24-4.15,14.26,14.26,0,0,1-1.51-6.9A15.89,15.89,0,0,1,1213,660a10,10,0,0,1,3.89-4.35A11.25,11.25,0,0,1,1222.69,654.13Zm0,3.89a5.17,5.17,0,0,0-3.94,1.58,7.49,7.49,0,0,0-1.77,4.64h11a8.44,8.44,0,0,0-.6-3.22,4.86,4.86,0,0,0-1.75-2.2A5.18,5.18,0,0,0,1222.69,658Z" transform="translate(-443 -199)"/><path class="cls-8" d="M1271.78,678.91l-3.15-8.92h-12.28l-3.14,8.92h-5.56l11.95-32.25h5.85l11.93,32.25Zm-4.51-13.42-3-8.81-.51-1.61c-.22-.68-.44-1.4-.66-2.13s-.4-1.35-.55-1.84c-.14.6-.32,1.27-.53,2s-.42,1.43-.62,2.08l-.45,1.49-3.08,8.81Z" transform="translate(-443 -199)"/><path class="cls-8" d="M1279,689.72a13.76,13.76,0,0,1-2.17-.16,14.59,14.59,0,0,1-1.76-.38V685a10.46,10.46,0,0,0,1.46.33,9.76,9.76,0,0,0,1.59.11,3.53,3.53,0,0,0,2.37-.79,3.84,3.84,0,0,0,.93-3V654.59h5.19v27.55a9.46,9.46,0,0,1-.78,3.94,5.85,5.85,0,0,1-2.46,2.68A8.79,8.79,0,0,1,1279,689.72Zm2.11-41.61a2.58,2.58,0,0,1,.86-2.2,3.44,3.44,0,0,1,2.09-.64,3.4,3.4,0,0,1,2,.64,2.56,2.56,0,0,1,.87,2.2,2.6,2.6,0,0,1-.87,2.2,3.28,3.28,0,0,1-2,.65,3.32,3.32,0,0,1-2.09-.65A2.62,2.62,0,0,1,1281.12,648.11Z" transform="translate(-443 -199)"/><path class="cls-8" d="M1315.56,654.59v24.32h-4.06l-.73-3.25h-.26a6.84,6.84,0,0,1-2,2.08,8.61,8.61,0,0,1-2.64,1.22,11.9,11.9,0,0,1-3.07.39,10.74,10.74,0,0,1-4.67-.93,6.58,6.58,0,0,1-3-2.89,10.76,10.76,0,0,1-1-5V654.59h5.21v14.92a6.58,6.58,0,0,0,1.15,4.24,4.38,4.38,0,0,0,3.59,1.41,6.42,6.42,0,0,0,3.73-1,5.28,5.28,0,0,0,2-2.86,15.44,15.44,0,0,0,.6-4.63V654.59Z" transform="translate(-443 -199)"/><path class="cls-8" d="M1331.46,679.35a8.6,8.6,0,0,1-7-3.17q-2.62-3.18-2.62-9.37t2.67-9.47a8.7,8.7,0,0,1,7-3.21,9.58,9.58,0,0,1,3.21.49,8,8,0,0,1,2.39,1.33,8.26,8.26,0,0,1,1.69,1.87h.25c-.08-.45-.16-1.11-.25-2a22.71,22.71,0,0,1-.13-2.38v-8.75h5.19v34.19h-4l-.92-3.29h-.22a8.41,8.41,0,0,1-1.66,1.89,7.46,7.46,0,0,1-2.38,1.35A9.66,9.66,0,0,1,1331.46,679.35Zm1.47-4.19c2.2,0,3.75-.64,4.67-1.91a10,10,0,0,0,1.39-5.74v-.68a12.27,12.27,0,0,0-1.3-6.26q-1.32-2.18-4.81-2.18a4.77,4.77,0,0,0-4.25,2.24,11.46,11.46,0,0,0-1.46,6.26,10.85,10.85,0,0,0,1.46,6.15A4.9,4.9,0,0,0,1332.93,675.16Z" transform="translate(-443 -199)"/><path class="cls-8" d="M1361.22,654.13c3.07,0,5.4.68,7,2s2.37,3.49,2.37,6.37v16.37h-3.67l-1-3.45h-.18a13.1,13.1,0,0,1-2.13,2.19,7.48,7.48,0,0,1-2.53,1.29,13,13,0,0,1-3.49.41,9,9,0,0,1-3.91-.8,6,6,0,0,1-2.7-2.45,8.09,8.09,0,0,1-1-4.17,6.35,6.35,0,0,1,2.8-5.65q2.81-1.89,8.47-2.09l4.2-.15v-1.28a4,4,0,0,0-4.46-4.65,12,12,0,0,0-3.54.52,25.86,25.86,0,0,0-3.34,1.28l-1.69-3.65a19.47,19.47,0,0,1,4.07-1.54A19,19,0,0,1,1361.22,654.13Zm4.19,13.16-3.12.13c-2.58.09-4.38.53-5.42,1.31a3.82,3.82,0,0,0-1.56,3.24,3.13,3.13,0,0,0,1.07,2.63,4.54,4.54,0,0,0,2.84.82,6.55,6.55,0,0,0,4.44-1.53,5.59,5.59,0,0,0,1.75-4.47Z" transform="translate(-443 -199)"/><text class="cls-9" transform="translate(115.95 417.33)">B<tspan class="cls-10" x="177.82" y="0">r</tspan><tspan class="cls-11" x="316.32" y="0">asil</tspan></text><text class="cls-12" transform="translate(94.31 317.04) scale(0.48 1)">SU<tspan class="cls-13" x="545.41" y="0">D</tspan><tspan class="cls-14" x="802.85" y="0">A</tspan></text><rect id="_Fatia_" data-name="&lt;Fatia&gt;" class="cls-4" width="1089" height="556"/></svg>