<?xml version="1.0" ?><svg id="Layer_1" style="enable-background:new 0 0 24 24;" version="1.1" viewBox="0 0 24 24" xml:space="preserve" xmlns="http://www.w3.org/2000/svg" xmlns:xlink="http://www.w3.org/1999/xlink"><title/><g id="Snowbulb"><g><path d="M20,15.92c3.313-4.418,2.418-10.686-2.001-14s-10.686-2.418-14,2.001C2.685,5.674,1.983,7.809,2,10    c-0.001,1.725,0.447,3.421,1.3,4.92c0.016,0.036,0.036,0.069,0.06,0.1c0.186,0.318,0.39,0.625,0.61,0.92l-0.43,2.33    c-0.427,0.419-0.653,1.002-0.62,1.6c0.08,0.655,0.446,1.241,1,1.6C6.27,23.08,7.77,24,12,24s5.74-0.92,8-2.53    c0.554-0.359,0.92-0.945,1-1.6c0.033-0.598-0.193-1.181-0.62-1.6L20,15.92z M9.11,13c1.13-0.013,2.243,0.281,3.22,0.85    c0.759,1.473,2.569,2.051,4.041,1.292c0.502-0.259,0.921-0.655,1.209-1.142c0.31,0,0.82,0,1.38-0.07    c-2.181,3.843-7.063,5.19-10.906,3.01c-1.178-0.668-2.167-1.625-2.874-2.78C6.33,13.358,7.709,12.951,9.11,13z M14.39,9.78    C14.148,9.593,14.004,9.306,14,9c0.008-0.178,0.063-0.351,0.16-0.5h1.68C15.937,8.649,15.992,8.822,16,9    c-0.004,0.306-0.148,0.593-0.39,0.78c-0.219,0.169-0.259,0.483-0.09,0.701c0.055,0.071,0.127,0.125,0.21,0.159    c1.027,0.406,1.531,1.568,1.125,2.595c-0.406,1.027-1.568,1.531-2.595,1.125s-1.531-1.568-1.125-2.595    c0.203-0.514,0.611-0.922,1.125-1.125c0.256-0.103,0.381-0.393,0.279-0.65c-0.033-0.083-0.088-0.156-0.159-0.21H14.39z M12,2    c4.418,0.004,7.997,3.589,7.993,8.007c-0.001,0.979-0.181,1.949-0.533,2.863c-0.52,0.07-1.06,0.1-1.51,0.12    c0.237-1.159-0.253-2.347-1.24-3C16.892,9.691,16.992,9.35,17,9c-0.002-0.169-0.026-0.337-0.07-0.5H17c0.276,0,0.5-0.224,0.5-0.5    c0-0.276-0.224-0.5-0.5-0.5h-0.69l0.18-0.9c0.055-0.271-0.119-0.535-0.39-0.59C16.067,6.003,16.034,6,16,6h-2    c-0.276,0.001-0.499,0.226-0.498,0.502c0,0.03,0.003,0.059,0.008,0.088l0.16,0.91H13c-0.276,0-0.5,0.224-0.5,0.5    c0,0.276,0.224,0.5,0.5,0.5h0.07C13.026,8.663,13.002,8.831,13,9c0.007,0.353,0.107,0.698,0.29,1    c-0.818,0.568-1.302,1.504-1.29,2.5c0,0,0,0,0,0.06c-0.912-0.357-1.881-0.546-2.86-0.56H9v-1h2    c0.276,0.003,0.503-0.218,0.506-0.494c0.001-0.075-0.015-0.149-0.046-0.216L9,4.79C8.861,4.539,8.545,4.448,8.293,4.587    C8.208,4.634,8.137,4.704,8.09,4.79l-2.5,5.5c-0.117,0.25-0.009,0.548,0.241,0.665C5.884,10.98,5.941,10.995,6,11h2v1.06    c-1.176,0.142-2.302,0.556-3.29,1.21C2.904,9.238,4.709,4.505,8.741,2.699C9.766,2.24,10.877,2.002,12,2z M12,22    c-4.49,0-6.75-2-6.84-2.13c-0.189-0.202-0.178-0.518,0.023-0.707c0.182-0.171,0.463-0.181,0.657-0.023    C7.617,20.453,9.793,21.11,12,21c0.276,0,0.5,0.224,0.5,0.5S12.276,22,12,22z" style="fill:#303C42;"/><circle cx="10.5" cy="3.5" r="0.5" style="fill:#303C42;"/><circle cx="5.5" cy="7.5" r="0.5" style="fill:#303C42;"/><circle cx="11.5" cy="5.5" r="0.5" style="fill:#303C42;"/><circle cx="14.5" cy="3.5" r="0.5" style="fill:#303C42;"/><circle cx="18.5" cy="7.5" r="0.5" style="fill:#303C42;"/></g></g></svg>